<svg xmlns="http://www.w3.org/2000/svg" xmlns:xlink="http://www.w3.org/1999/xlink" version="1.1" viewBox="0 0 86 86"><rect x="7" y="7" width="72" height="72" rx="100" ry="100" fill="none" stroke="#0079C1" stroke-width="14">
    <animate attributeName="stroke-width" values="14;8;14" dur="2s" repeatCount="indefinite"/>
    <animate attributeName="x" values="7;10;7" dur="2s" repeatCount="indefinite"/>
    <animate attributeName="y" values="7;10;7" dur="2s" repeatCount="indefinite"/>
    <animate attributeName="width" values="72;64;72" dur="2s" repeatCount="indefinite"/>
    <animate attributeName="height" values="72;64;72" dur="2s" repeatCount="indefinite"/>
</rect><g id="Logo" stroke="none" stroke-width="1" fill="none" fill-rule="evenodd"><g xmlns="http://www.w3.org/2000/svg" id="BMO-MB_2" transform="translate(43 43) scale(0.82) translate(-204.56 -70)"><path d="M204.56,34 C184.677749,34 168.56,50.117749 168.56,70 C168.56,89.882251 184.677749,106 204.56,106 C224.442251,106 240.56,89.882251 240.56,70 C240.56,50.117749 224.442251,34 204.56,34 Z" id="Path" fill="#ED1C24" fill-rule="nonzero"/><path d="M203.46,59 L197.21,50.85 C196.946665,50.5028122 196.535757,50.2992088 196.1,50.3 C195.67683,50.2976313 195.277034,50.4938271 195.02,50.83 L187.58,60.2 L187.58,74.9 L195,65.41 C195.272572,65.0633019 195.688985,64.8606231 196.13,64.86 C196.576598,64.8584097 196.998295,65.065559 197.27,65.42 L203.55,73.63 C203.790682,73.9419108 204.156432,74.1321005 204.55,74.15 C204.944673,74.1362572 205.312086,73.9452027 205.55,73.63 L211.83,65.42 C212.104645,65.0691639 212.524458,64.8629399 212.97,64.86 C213.41206,64.8560515 213.830382,65.0596594 214.1,65.41 L221.5,74.89 L221.5,60.19 L214.06,50.82 C213.798823,50.4834822 213.395972,50.2876005 212.97,50.2899782 C212.53532,50.2937702 212.126312,50.4964317 211.86,50.84 L205.66,59 C205.398755,59.34309 204.991219,59.5431533 204.56,59.54 C204.129846,59.5385487 203.724237,59.3394316 203.46,59 Z M221.55,85.67 L187.55,85.67 L187.55,85.67 L187.55,85.67 L187.55,74.89 L221.55,74.89 L221.55,74.89 L221.55,74.89 L221.55,85.67 Z" id="Shape" fill="#FFFFFF" fill-rule="nonzero"/></g></g></svg>